<svg width="20" height="18" viewBox="0 0 20 18" fill="none" xmlns="http://www.w3.org/2000/svg">
<path d="M9.81651 0.423147C9.88614 0.262571 10.1139 0.262571 10.1835 0.423147L12.6686 6.15401C12.6976 6.22084 12.7606 6.26663 12.8331 6.27354L19.0514 6.86608C19.2257 6.88268 19.296 7.09926 19.1648 7.2151L14.4824 11.3495C14.4278 11.3977 14.4037 11.4718 14.4196 11.5429L15.7776 17.64C15.8156 17.8108 15.6314 17.9447 15.4807 17.8557L10.1017 14.68C10.039 14.643 9.96105 14.643 9.89832 14.68L4.51931 17.8557C4.3686 17.9447 4.18437 17.8108 4.22242 17.64L5.58045 11.5429C5.59628 11.4718 5.57221 11.3977 5.51761 11.3495L0.83517 7.2151C0.70397 7.09926 0.774339 6.88268 0.948573 6.86608L7.16689 6.27354C7.2394 6.26663 7.30243 6.22084 7.33141 6.15401L9.81651 0.423147Z" fill="#E98D4B"/>
</svg>
