<svg width="221" height="232" viewBox="0 0 221 232" fill="none" xmlns="http://www.w3.org/2000/svg">
<path d="M110.5 0.988281C56.7328 0.988281 13.1631 44.558 13.1631 98.3249C13.1631 135.637 34.0209 167.851 64.8442 184.306L91.9594 126.135H129.04L156.155 184.306C186.978 167.851 207.836 135.637 207.836 98.3249C207.836 44.558 164.267 0.988281 110.5 0.988281Z" fill="url(#paint0_linear_145_1293)"/>
<path d="M173.506 226.179C168.659 220.845 140.46 216.623 108.516 216.623C76.5725 216.623 50.3564 220.623 45.5098 225.957L91.1125 127.062C97.0607 128.84 102.348 129.729 108.516 129.729C114.685 129.729 122.175 128.84 128.123 127.062L173.506 226.179Z" fill="white"/>
<path d="M43.2912 231.583C43.0595 231.583 43.0595 231.583 42.8277 231.583C42.1324 231.351 41.9007 230.656 42.3642 229.961L91.0325 125.672C91.2642 125.208 91.9595 124.745 92.6548 125.208C93.35 125.44 93.5818 126.135 93.1183 126.83L44.45 231.12C44.2182 231.351 43.7547 231.583 43.2912 231.583Z" fill="#161616"/>
<path d="M177.709 231.583C177.245 231.583 176.782 231.351 176.55 230.888L127.881 126.598C127.65 125.903 127.881 125.44 128.345 124.976C129.04 124.744 129.504 124.976 129.967 125.44L178.636 229.729C178.867 230.424 178.636 230.888 178.172 231.351C177.94 231.583 177.94 231.583 177.709 231.583Z" fill="#161616"/>
<path d="M156.85 109.913C144.104 122.196 127.186 128.453 110.5 128.453C93.8134 128.453 76.8954 122.196 64.1489 109.913H156.85Z" fill="white"/>
<path d="M110.5 230.148C145.869 230.148 174.542 227.482 174.542 224.195C174.542 220.907 145.869 218.241 110.5 218.241C75.1309 218.241 46.4585 220.907 46.4585 224.195C46.4585 227.482 75.1309 230.148 110.5 230.148Z" fill="#E2E2E2"/>
<path d="M110.5 231.14C78.115 231.14 45.5098 228.741 45.5098 224.195C45.5098 219.648 78.115 217.249 110.5 217.249C142.885 217.249 175.49 219.648 175.49 224.195C175.49 228.741 142.885 231.14 110.5 231.14ZM110.5 218.512C71.5059 218.512 47.7128 221.795 47.7128 224.195C47.7128 226.594 71.5059 229.877 110.5 229.877C149.494 229.877 173.287 226.594 173.287 224.195C173.287 221.795 149.494 218.512 110.5 218.512Z" fill="#161616"/>
<path d="M93.3502 171.327H93.1184C92.4232 171.095 92.1914 170.632 92.1914 169.937L101.23 128.221C101.462 127.526 101.925 127.294 102.62 127.294C103.316 127.526 103.547 127.989 103.547 128.684L94.5089 170.4C94.2772 170.864 93.8137 171.327 93.3502 171.327Z" fill="#161616"/>
<path d="M88.2515 194.502H88.0198C87.3245 194.271 87.0928 193.807 87.0928 193.112L91.0326 174.572C91.2643 173.876 91.7278 173.645 92.4231 173.645C93.1184 173.876 93.3501 174.34 93.3501 175.035L89.4103 193.575C89.4103 194.039 88.9468 194.502 88.2515 194.502Z" fill="#161616"/>
<path d="M132.748 194.502C132.285 194.502 131.821 194.039 131.589 193.575L127.65 175.035C127.418 174.34 127.881 173.876 128.577 173.645C129.272 173.645 129.735 173.876 129.967 174.572L133.907 193.112C134.139 193.807 133.675 194.271 132.98 194.502C132.748 194.502 132.748 194.502 132.748 194.502Z" fill="#161616"/>
<path d="M127.65 171.327C127.186 171.327 126.723 170.864 126.491 170.4L117.452 128.684C117.221 127.989 117.684 127.526 118.379 127.294C119.075 127.294 119.538 127.526 119.77 128.221L128.808 169.937C129.04 170.632 128.577 171.095 127.881 171.327C127.881 171.327 127.881 171.327 127.65 171.327Z" fill="#161616"/>
<path d="M208.3 109.912H12.7C9.22373 109.912 6.21094 107.131 6.21094 103.423C6.21094 100.411 8.29672 97.8613 11.3095 97.166L75.7371 82.1021H145.263L209.691 97.166C212.704 97.8613 214.789 100.411 214.789 103.423C214.789 107.131 212.008 109.912 208.3 109.912Z" fill="white"/>
<path d="M140.628 72.8317H80.3716V56.609C80.3716 39.9227 93.8133 26.481 110.5 26.481C127.186 26.481 140.628 39.9227 140.628 56.609V72.8317Z" fill="#56CCF2"/>
<path d="M140.628 75.1494H80.3717C78.9812 75.1494 78.0542 74.2224 78.0542 72.8319V56.6091C78.0542 38.7641 92.6547 24.1636 110.5 24.1636C128.345 24.1636 142.945 38.7641 142.945 56.6091V72.8319C142.945 74.2224 142.018 75.1494 140.628 75.1494ZM82.6893 70.5143H138.31V56.6091C138.31 41.3134 125.795 28.7987 110.5 28.7987C95.204 28.7987 82.6893 41.3134 82.6893 56.6091V70.5143Z" fill="#161616"/>
<path d="M94.2771 41.3135C94.0453 41.3135 93.5818 41.0817 93.3501 41.0817C92.8866 40.6182 92.8866 39.9229 93.3501 39.4594C97.9851 35.0561 104.011 32.5068 110.5 32.5068C111.195 32.5068 111.659 32.9703 111.659 33.6656C111.659 34.3609 111.195 34.8244 110.5 34.8244C104.706 34.8244 99.1439 37.1419 94.9723 41.0817C94.9723 41.0817 94.5088 41.3135 94.2771 41.3135Z" fill="#161616"/>
<path d="M88.4836 50.8155H88.2519C87.5566 50.5837 87.3249 49.8885 87.5566 49.425C88.0201 48.2662 88.2519 47.1074 88.9472 46.1804C89.1789 45.7169 89.8742 45.2534 90.5694 45.7169C91.0329 45.9486 91.4964 46.6439 91.0329 47.3392C90.5694 48.2662 90.1059 49.425 89.8742 50.352C89.4107 50.5837 88.9472 50.8155 88.4836 50.8155Z" fill="#161616"/>
<path d="M145.263 82.1022H75.7368V77.4671C75.7368 74.9178 77.8226 72.832 80.3719 72.832H140.628C143.177 72.832 145.263 74.9178 145.263 77.4671V82.1022Z" fill="white"/>
<path d="M168.439 54.2917C168.439 55.6822 167.512 56.6092 166.121 56.6092C164.731 56.6092 163.804 55.6822 163.804 54.2917C163.804 52.9011 164.731 51.9741 166.121 51.9741C167.512 51.9741 168.439 52.9011 168.439 54.2917Z" fill="#161616"/>
<path d="M168.438 69.3555C168.438 70.0508 167.975 70.5143 167.279 70.5143C166.584 70.5143 166.121 70.0508 166.121 69.3555C166.121 68.6603 166.584 68.1968 167.279 68.1968C167.975 68.1968 168.438 68.6603 168.438 69.3555Z" fill="#161616"/>
<path d="M184.661 48.4976C184.661 49.1929 184.198 49.6564 183.503 49.6564C182.807 49.6564 182.344 49.1929 182.344 48.4976C182.344 47.8024 182.807 47.3389 183.503 47.3389C184.198 47.3389 184.661 47.8024 184.661 48.4976Z" fill="#161616"/>
<path d="M38.6564 78.6256C38.6564 79.3208 38.1929 79.7843 37.4976 79.7843C36.8024 79.7843 36.3389 79.3208 36.3389 78.6256C36.3389 77.9303 36.8024 77.4668 37.4976 77.4668C38.1929 77.4668 38.6564 77.9303 38.6564 78.6256Z" fill="#161616"/>
<path d="M168.438 27.6402C168.438 28.3355 167.975 28.799 167.279 28.799C166.584 28.799 166.121 28.3355 166.121 27.6402C166.121 26.945 166.584 26.4814 167.279 26.4814C167.975 26.4814 168.438 26.945 168.438 27.6402Z" fill="#161616"/>
<path d="M64.1496 39.2276C64.1496 39.9229 63.6861 40.3864 62.9908 40.3864C62.2955 40.3864 61.832 39.9229 61.832 39.2276C61.832 38.5324 62.2955 38.0688 62.9908 38.0688C63.6861 38.0688 64.1496 38.5324 64.1496 39.2276Z" fill="#161616"/>
<path d="M91.9596 11.4171C91.9596 12.1123 91.4961 12.5758 90.8009 12.5758C90.1056 12.5758 89.6421 12.1123 89.6421 11.4171C89.6421 10.7218 90.1056 10.2583 90.8009 10.2583C91.4961 10.2583 91.9596 10.7218 91.9596 11.4171Z" fill="#161616"/>
<path d="M43.2917 39.2276C43.2917 39.9229 42.8281 40.3864 42.1329 40.3864C41.4376 40.3864 40.9741 39.9229 40.9741 39.2276C40.9741 38.5324 41.4376 38.0688 42.1329 38.0688C42.8281 38.0688 43.2917 38.5324 43.2917 39.2276Z" fill="#161616"/>
<path d="M52.5617 69.3555C52.5617 70.0508 52.0982 70.5143 51.4029 70.5143C50.7076 70.5143 50.2441 70.0508 50.2441 69.3555C50.2441 68.6603 50.7076 68.1968 51.4029 68.1968C52.0982 68.1968 52.5617 68.6603 52.5617 69.3555Z" fill="#161616"/>
<path d="M138.31 19.5285C138.31 20.919 137.383 21.846 135.993 21.846C134.602 21.846 133.675 20.919 133.675 19.5285C133.675 18.138 134.602 17.2109 135.993 17.2109C137.383 17.2109 138.31 18.138 138.31 19.5285Z" fill="#161616"/>
<path d="M50.244 54.2917C50.244 55.6822 49.3169 56.6092 47.9264 56.6092C46.5359 56.6092 45.6089 55.6822 45.6089 54.2917C45.6089 52.9011 46.5359 51.9741 47.9264 51.9741C49.3169 51.9741 50.244 52.9011 50.244 54.2917Z" fill="#161616"/>
<path d="M140.628 70.5142H80.3716C76.4317 70.5142 73.4189 73.527 73.4189 77.4668V82.1018C73.4189 83.4924 74.346 84.4194 75.7365 84.4194H145.263C146.653 84.4194 147.58 83.4924 147.58 82.1018V77.4668C147.58 73.527 144.567 70.5142 140.628 70.5142ZM93.118 75.1492H100.071V79.7843H93.118V75.1492ZM90.8005 79.7843H83.8479V75.1492H90.8005V79.7843ZM102.388 75.1492H109.341V79.7843H102.388V75.1492ZM111.658 75.1492H118.611V79.7843H111.658V75.1492ZM120.928 75.1492H127.881V79.7843H120.928V75.1492ZM130.199 75.1492H137.151V79.7843H130.199V75.1492ZM78.054 77.4668C78.054 76.0762 78.981 75.1492 80.3716 75.1492H81.5303V79.7843H78.054V77.4668ZM142.945 79.7843H139.469V75.1492H140.628C142.018 75.1492 142.945 76.0762 142.945 77.4668V79.7843Z" fill="#161616"/>
<path d="M124.405 72.8316H96.5942V56.6088C96.5942 48.961 102.852 42.7036 110.499 42.7036C118.147 42.7036 124.405 48.961 124.405 56.6088V72.8316Z" fill="#27AE60"/>
<path d="M124.405 75.1493H96.5944C95.2039 75.1493 94.2769 74.2223 94.2769 72.8318V56.609C94.2769 47.5706 101.461 40.3862 110.5 40.3862C119.538 40.3862 126.722 47.5706 126.722 56.609V72.8318C126.722 74.2223 125.795 75.1493 124.405 75.1493ZM98.9119 70.5142H122.087V56.609C122.087 50.1199 116.989 45.0213 110.5 45.0213C104.011 45.0213 98.9119 50.1199 98.9119 56.609V70.5142Z" fill="#161616"/>
<path d="M110.5 63.5615C114.34 63.5615 117.453 60.4487 117.453 56.6089C117.453 52.769 114.34 49.6562 110.5 49.6562C106.66 49.6562 103.547 52.769 103.547 56.6089C103.547 60.4487 106.66 63.5615 110.5 63.5615Z" fill="white"/>
<path d="M110.5 64.7203C106.097 64.7203 102.389 61.0122 102.389 56.6089C102.389 52.2056 106.097 48.4976 110.5 48.4976C114.903 48.4976 118.611 52.2056 118.611 56.6089C118.611 61.0122 114.903 64.7203 110.5 64.7203ZM110.5 50.8151C107.255 50.8151 104.706 53.3644 104.706 56.6089C104.706 59.8535 107.255 62.4028 110.5 62.4028C113.745 62.4028 116.294 59.8535 116.294 56.6089C116.294 53.3644 113.745 50.8151 110.5 50.8151Z" fill="#161616"/>
<path d="M112.817 58.9269C112.817 60.3174 111.89 61.2444 110.5 61.2444C109.109 61.2444 108.182 60.3174 108.182 58.9269C108.182 57.5364 109.109 56.6094 110.5 56.6094C111.89 56.6094 112.817 57.5364 112.817 58.9269Z" fill="#161616"/>
<path d="M210.385 94.8482L145.726 79.7842C145.494 79.7842 145.263 79.7842 145.263 79.7842H75.7364C75.5047 79.7842 75.2729 79.7842 75.2729 79.7842L10.8454 94.8482C6.90556 95.7752 4.12451 99.2515 4.12451 103.423C4.12451 108.29 8.06432 112.23 12.9312 112.23H208.531C213.398 112.23 217.338 108.29 217.338 103.423C217.106 99.2515 214.325 95.7752 210.385 94.8482ZM11.7724 99.4833L75.9682 84.4193H145.031L209.227 99.4833C210.617 99.715 211.544 100.642 212.008 101.801H209.69C209.227 101.106 208.531 100.642 207.836 100.642C206.909 100.642 206.214 101.106 205.982 101.801H193.699C193.236 101.106 192.54 100.642 191.845 100.642C190.918 100.642 190.223 101.106 189.991 101.801H177.708C177.013 101.106 176.318 100.642 175.391 100.642C174.464 100.642 173.768 101.106 173.536 101.801H161.254C160.79 101.106 160.095 100.642 159.168 100.642C158.241 100.642 157.545 101.106 157.314 101.801H145.031C144.567 101.106 143.872 100.642 142.945 100.642C142.018 100.642 141.323 101.106 141.091 101.801H128.808C128.345 101.106 127.649 100.642 126.722 100.642C125.795 100.642 125.1 101.106 124.868 101.801H112.585C112.122 101.106 111.426 100.642 110.499 100.642C109.572 100.642 108.877 101.106 108.645 101.801H96.3625C95.899 101.106 95.2037 100.642 94.2767 100.642C93.3497 100.642 92.6544 101.106 92.4227 101.801H80.1397C79.6762 101.106 78.981 100.642 78.0539 100.642C77.1269 100.642 76.4317 101.106 76.1999 101.801H63.917C63.4535 101.106 62.7582 100.642 61.8312 100.642C60.9042 100.642 60.2089 101.106 59.9772 101.801H47.6942C47.2307 101.106 46.5354 100.642 45.6084 100.642C44.6814 100.642 43.9862 101.106 43.7544 101.801H31.4715C31.0079 101.106 30.3127 100.642 29.3857 100.642C28.4587 100.642 27.7634 101.106 27.5316 101.801H15.2487C14.7852 101.106 14.0899 100.642 13.1629 100.642C12.2359 100.642 11.5406 101.106 11.3089 101.801H8.99134C9.45485 100.642 10.3819 99.715 11.7724 99.4833ZM208.3 107.595H12.6994C10.6136 107.595 8.99134 105.972 8.52783 104.118H11.0771C11.5406 104.814 12.2359 105.277 12.9312 105.277C13.8582 105.277 14.5534 104.814 14.7852 104.118H27.0681C27.5316 104.814 28.2269 105.277 28.9222 105.277C29.6174 105.277 30.5444 104.814 30.7762 104.118H43.0591C43.5226 104.814 44.2179 105.277 44.9132 105.277C45.6084 105.277 46.5354 104.814 46.7672 104.118H59.0501C59.5136 104.814 60.2089 105.277 60.9042 105.277C61.5994 105.277 62.5265 104.814 62.7582 104.118H75.0412C75.5047 104.814 76.1999 105.277 76.8952 105.277C77.5904 105.277 78.5174 104.814 78.7492 104.118H91.0322C91.4957 104.814 92.1909 105.277 92.8862 105.277C93.5815 105.277 94.5085 104.814 94.7402 104.118H107.023C107.487 104.814 108.182 105.277 108.877 105.277C109.804 105.277 110.499 104.814 110.731 104.118H123.014C123.478 104.814 124.173 105.277 124.868 105.277C125.795 105.277 126.49 104.814 126.722 104.118H139.005C139.469 104.814 140.164 105.277 140.859 105.277C141.786 105.277 142.481 104.814 142.713 104.118H154.996C155.46 104.814 156.155 105.277 156.85 105.277C157.777 105.277 158.473 104.814 158.704 104.118H170.987C171.451 104.814 172.146 105.277 172.841 105.277C173.768 105.277 174.464 104.814 174.695 104.118H186.978C187.442 104.814 188.137 105.277 188.832 105.277C189.759 105.277 190.455 104.814 190.686 104.118H202.969C203.433 104.814 204.128 105.277 204.823 105.277C205.75 105.277 206.446 104.814 206.677 104.118H209.227C212.008 105.972 210.385 107.595 208.3 107.595Z" fill="#161616"/>
<path d="M219.424 231.583H184.661C183.966 231.583 183.502 231.12 183.502 230.424C183.502 229.729 183.966 229.266 184.661 229.266H219.424C220.12 229.266 220.583 229.729 220.583 230.424C220.583 231.12 220.12 231.583 219.424 231.583Z" fill="#161616"/>
<path d="M36.3388 231.583H1.57576C0.8805 231.583 0.416992 231.12 0.416992 230.424C0.416992 229.729 0.8805 229.266 1.57576 229.266H36.3388C37.0341 229.266 37.4976 229.729 37.4976 230.424C37.4976 231.12 37.0341 231.583 36.3388 231.583Z" fill="#161616"/>
<path d="M203.201 83.2608C202.506 83.2608 202.042 82.7973 202.042 82.1021C202.042 78.8575 199.493 76.3082 196.249 76.3082C195.553 76.3082 195.09 75.8447 195.09 75.1495C195.09 74.4542 195.553 73.9907 196.249 73.9907C199.493 73.9907 202.042 71.4414 202.042 68.1969C202.042 67.5016 202.506 67.0381 203.201 67.0381C203.896 67.0381 204.36 67.5016 204.36 68.1969C204.36 71.4414 206.909 73.9907 210.154 73.9907C210.849 73.9907 211.313 74.4542 211.313 75.1495C211.313 75.8447 210.849 76.3082 210.154 76.3082C206.909 76.3082 204.36 78.8575 204.36 82.1021C204.36 82.7973 203.896 83.2608 203.201 83.2608ZM200.42 75.1495C201.579 75.8447 202.506 76.7717 203.201 77.9305C203.896 76.7717 204.824 75.8447 205.982 75.1495C204.824 74.4542 203.896 73.5272 203.201 72.3684C202.506 73.5272 201.579 74.4542 200.42 75.1495Z" fill="#161616"/>
<path d="M31.7033 70.514C32.9832 70.514 34.0208 69.4764 34.0208 68.1964C34.0208 66.9165 32.9832 65.8789 31.7033 65.8789C30.4233 65.8789 29.3857 66.9165 29.3857 68.1964C29.3857 69.4764 30.4233 70.514 31.7033 70.514Z" fill="white"/>
<path d="M31.7034 71.6728C31.0081 71.6728 30.5446 71.2093 30.5446 70.5141C30.5446 69.8188 30.0811 69.3553 29.3858 69.3553C28.6906 69.3553 28.2271 68.8918 28.2271 68.1965C28.2271 67.5013 28.6906 67.0378 29.3858 67.0378C30.0811 67.0378 30.5446 66.5742 30.5446 65.879C30.5446 65.1837 31.0081 64.7202 31.7034 64.7202C32.3986 64.7202 32.8621 65.1837 32.8621 65.879C32.8621 66.5742 33.3256 67.0378 34.0209 67.0378C34.7161 67.0378 35.1797 67.5013 35.1797 68.1965C35.1797 68.8918 34.7161 69.3553 34.0209 69.3553C33.3256 69.3553 32.8621 69.8188 32.8621 70.5141C32.8621 71.2093 32.3986 71.6728 31.7034 71.6728Z" fill="#161616"/>
<path d="M154.533 33.4334C155.813 33.4334 156.85 32.3958 156.85 31.1159C156.85 29.8359 155.813 28.7983 154.533 28.7983C153.253 28.7983 152.215 29.8359 152.215 31.1159C152.215 32.3958 153.253 33.4334 154.533 33.4334Z" fill="white"/>
<path d="M154.533 34.5923C153.838 34.5923 153.374 34.1287 153.374 33.4335C153.374 32.7382 152.911 32.2747 152.215 32.2747C151.52 32.2747 151.057 31.8112 151.057 31.1159C151.057 30.4207 151.52 29.9572 152.215 29.9572C152.911 29.9572 153.374 29.4937 153.374 28.7984C153.374 28.1032 153.838 27.6396 154.533 27.6396C155.228 27.6396 155.692 28.1032 155.692 28.7984C155.692 29.4937 156.155 29.9572 156.85 29.9572C157.546 29.9572 158.009 30.4207 158.009 31.1159C158.009 31.8112 157.546 32.2747 156.85 32.2747C156.155 32.2747 155.692 32.7382 155.692 33.4335C155.692 34.1287 155.228 34.5923 154.533 34.5923Z" fill="#161616"/>
<path d="M182.343 63.5613C183.623 63.5613 184.661 62.5237 184.661 61.2438C184.661 59.9639 183.623 58.9263 182.343 58.9263C181.063 58.9263 180.026 59.9639 180.026 61.2438C180.026 62.5237 181.063 63.5613 182.343 63.5613Z" fill="white"/>
<path d="M182.344 64.7202C181.648 64.7202 181.185 64.2567 181.185 63.5614C181.185 62.8661 180.721 62.4026 180.026 62.4026C179.331 62.4026 178.867 61.9391 178.867 61.2439C178.867 60.5486 179.331 60.0851 180.026 60.0851C180.721 60.0851 181.185 59.6216 181.185 58.9263C181.185 58.2311 181.648 57.7676 182.344 57.7676C183.039 57.7676 183.502 58.2311 183.502 58.9263C183.502 59.6216 183.966 60.0851 184.661 60.0851C185.356 60.0851 185.82 60.5486 185.82 61.2439C185.82 61.9391 185.356 62.4026 184.661 62.4026C183.966 62.4026 183.502 62.8661 183.502 63.5614C183.502 64.2567 183.039 64.7202 182.344 64.7202Z" fill="#161616"/>
<path d="M57.1963 27.6398C56.5011 27.6398 56.0376 27.1762 56.0376 26.481C56.0376 23.2364 53.4883 20.6871 50.2437 20.6871C49.5485 20.6871 49.085 20.2236 49.085 19.5284C49.085 18.8331 49.5485 18.3696 50.2437 18.3696C53.4883 18.3696 56.0376 15.8203 56.0376 12.5758C56.0376 11.8805 56.5011 11.417 57.1963 11.417C57.8916 11.417 58.3551 11.8805 58.3551 12.5758C58.3551 15.8203 60.9044 18.3696 64.149 18.3696C64.8442 18.3696 65.3077 18.8331 65.3077 19.5284C65.3077 20.2236 64.8442 20.6871 64.149 20.6871C60.9044 20.6871 58.3551 23.2364 58.3551 26.481C58.3551 27.1762 57.8916 27.6398 57.1963 27.6398ZM54.4153 19.5284C55.5741 20.2236 56.5011 21.1507 57.1963 22.3094C57.8916 21.1507 58.8186 20.2236 59.9774 19.5284C58.8186 18.8331 57.8916 17.9061 57.1963 16.7473C56.5011 17.9061 55.5741 18.8331 54.4153 19.5284Z" fill="#161616"/>
<path d="M158.937 108.986C158.705 108.059 157.778 107.595 156.851 107.595H64.1492C63.2222 107.595 62.2952 108.059 62.0634 108.986C61.5999 109.913 61.8317 110.84 62.5269 111.535C75.2734 124.05 92.4232 130.771 110.5 130.771C128.577 130.771 145.727 124.05 158.473 111.535C159.168 110.84 159.4 109.913 158.937 108.986ZM89.4104 122.659H131.59C124.869 124.977 117.684 126.136 110.5 126.136C103.084 126.136 96.1312 124.977 89.4104 122.659ZM137.383 120.342H83.6165C78.9814 118.256 74.3464 115.475 70.4066 112.23H150.825C146.654 115.475 142.25 118.256 137.383 120.342Z" fill="#161616"/>
<defs>
<linearGradient id="paint0_linear_145_1293" x1="68.3305" y1="14.3406" x2="158.622" y2="184.506" gradientUnits="userSpaceOnUse">
<stop stop-color="#E2E2E2"/>
<stop offset="1" stop-color="#B6B6B6"/>
</linearGradient>
</defs>
</svg>
